<?xml version="1.0" encoding="UTF-8" standalone="no"?>
<!-- Created with Inkscape (http://www.inkscape.org/) -->

<svg
   width="1024"
   height="500"
   viewBox="0 0 270.93333 132.29167"
   version="1.1"
   id="svg1"
   inkscape:version="1.4.2 (ebf0e94, 2025-05-08)"
   sodipodi:docname="featureGraphic.svg"
   inkscape:export-filename="banner.png"
   inkscape:export-xdpi="96"
   inkscape:export-ydpi="96"
   xmlns:inkscape="http://www.inkscape.org/namespaces/inkscape"
   xmlns:sodipodi="http://sodipodi.sourceforge.net/DTD/sodipodi-0.dtd"
   xmlns="http://www.w3.org/2000/svg"
   xmlns:svg="http://www.w3.org/2000/svg">
  <sodipodi:namedview
     id="namedview1"
     pagecolor="#ffffff"
     bordercolor="#000000"
     borderopacity="0.25"
     inkscape:showpageshadow="2"
     inkscape:pageopacity="0.0"
     inkscape:pagecheckerboard="0"
     inkscape:deskcolor="#d1d1d1"
     inkscape:document-units="mm"
     inkscape:zoom="0.81764678"
     inkscape:cx="521.00737"
     inkscape:cy="177.9497"
     inkscape:window-width="1536"
     inkscape:window-height="902"
     inkscape:window-x="0"
     inkscape:window-y="0"
     inkscape:window-maximized="1"
     inkscape:current-layer="layer1" />
  <defs
     id="defs1" />
  <g
     inkscape:label="Layer 1"
     inkscape:groupmode="layer"
     id="layer1">
    <path
       style="fill:#999999;stroke:#ffffff;stroke-width:6.26768e-06"
       d="m 185.23881,62.128838 c -12.11273,5.540119 -9.65709,30.785158 0,39.958552 10.55788,10.02905 25.76208,35.67715 43.62833,-2.24257 17.86623,-37.919852 -26.1465,-45.711838 -43.62833,-37.715982 z"
       id="path1"
       sodipodi:nodetypes="ssss" />
    <rect
       style="fill:#48373e;fill-opacity:1;stroke:none;stroke-width:0.392873"
       id="rect12"
       width="309.82144"
       height="147.46687"
       x="-22.651386"
       y="-8.692277"
       ry="2.3693504" />
    <path
       style="fill:#999999;stroke:#ffffff;stroke-width:6.26768e-06"
       d="m 221.73548,-72.59861 c 12.1127,5.540121 9.65704,30.785158 0,39.958554 -10.55782,10.02908 -25.762,35.6771122 -43.62827,-2.242574 -17.86629,-37.91985 26.14651,-45.711842 43.62827,-37.71598 z"
       id="path2"
       sodipodi:nodetypes="ssss" />
    <g
       id="g1"
       transform="translate(47.881834,7.7163641)">
      <g
         id="g12"
         style="opacity:1;fill:#e6e6e6;stroke:none;stroke-width:7.23825"
         transform="matrix(0.76246965,0,0,0.76246965,39.227287,-21.18485)">
        <path
           style="baseline-shift:baseline;display:inline;overflow:visible;opacity:1;vector-effect:none;fill:#e6e6e6;stroke:none;stroke-width:7.23825;enable-background:accumulate;stop-color:#000000;stop-opacity:1"
           d="m 68.886719,45.986328 c -10.185849,0 -19.414283,2.698516 -26.128907,7.095703 -6.714623,4.397187 -10.937499,10.530856 -10.9375,17.34961 0,6.818753 4.222877,12.954375 10.9375,17.351562 6.714624,4.397187 15.943058,7.095703 26.128907,7.095703 10.185848,0 19.416236,-2.698516 26.130859,-7.095703 6.714622,-4.397187 10.935552,-10.532809 10.935552,-17.351562 0,-6.818754 -4.22093,-12.952423 -10.935552,-17.34961 -6.714623,-4.397187 -15.945011,-7.095703 -26.130859,-7.095703 z m 0,1 c 10.00889,0 19.062434,2.66217 25.582031,6.931641 6.5196,4.269471 10.48438,10.107551 10.48438,16.513672 0,6.40612 -3.96478,12.246154 -10.48438,16.515625 -6.519597,4.269471 -15.573141,6.93164 -25.582031,6.93164 -10.008891,0 -19.062434,-2.662169 -25.582032,-6.93164 C 36.78509,82.677795 32.820312,76.837761 32.820312,70.431641 c 0,-6.406121 3.964778,-12.244201 10.484375,-16.513672 6.519598,-4.269471 15.573141,-6.931641 25.582032,-6.931641 z"
           id="path11" />
        <path
           style="baseline-shift:baseline;display:inline;overflow:visible;opacity:1;vector-effect:none;fill:#e6e6e6;stroke:none;stroke-width:7.23825;enable-background:accumulate;stop-color:#000000;stop-opacity:1"
           d="m 68.886719,44.931641 c -10.372324,0 -19.786993,2.735872 -26.707032,7.267578 -6.921462,4.53264 -11.414062,10.97781 -11.414062,18.232422 0,7.25461 4.492544,13.701698 11.414062,18.234375 6.920039,4.531706 16.334708,7.267578 26.707032,7.267578 10.372322,0 19.788909,-2.735848 26.708984,-7.267578 6.921547,-4.532701 11.412107,-10.979857 11.412107,-18.234375 0,-7.25452 -4.49061,-13.699759 -11.412107,-18.232422 -6.920075,-4.53173 -16.336662,-7.267578 -26.708984,-7.267578 z m 0,1 c 10.196173,0 19.436046,2.698837 26.162109,7.103515 6.724632,4.403747 10.958982,10.554598 10.958982,17.396485 0,6.841885 -4.2344,12.994727 -10.958982,17.398437 -6.726063,4.404678 -15.965936,7.103516 -26.162109,7.103516 -10.196175,0 -19.434057,-2.698814 -26.160157,-7.103516 -6.724619,-4.403733 -10.960937,-10.556644 -10.960937,-17.398437 0,-6.841795 4.236262,-12.992715 10.960937,-17.396485 6.7261,-4.404702 15.963982,-7.103515 26.160157,-7.103515 z m 0,1.111328 c -9.999334,0 -19.041505,2.659163 -25.550782,6.921875 -6.507689,4.261673 -10.458984,10.083904 -10.458984,16.466797 0,6.382891 3.951295,12.205123 10.458984,16.466796 6.509217,4.262673 15.551382,6.923829 25.550782,6.923829 9.999398,0 19.041565,-2.661156 25.550781,-6.923829 6.50769,-4.261673 10.45898,-10.083905 10.45898,-16.466796 0,-6.382893 -3.95129,-12.205124 -10.45898,-16.466797 -6.509275,-4.262712 -15.551449,-6.921875 -25.550781,-6.921875 z m 0,1 c 9.821649,0 18.690879,2.623618 25.003906,6.757812 6.314615,4.135235 10.005855,9.660408 10.005855,15.63086 0,5.97045 -3.69124,11.495624 -10.005855,15.630859 -6.313086,4.134233 -15.182323,6.759766 -25.003906,6.759766 -9.821585,0 -18.690819,-2.625532 -25.003907,-6.759766 -6.314614,-4.135235 -10.005859,-9.660409 -10.005859,-15.630859 0,-5.970452 3.691245,-11.495625 10.005859,-15.63086 6.313028,-4.134194 15.182256,-6.757812 25.003907,-6.757812 z"
           id="path12" />
      </g>
      <g
         id="path6"
         style="opacity:1;fill:#e6e6e6;stroke:none;stroke-width:7.23825"
         transform="matrix(0.94587704,0,0,0.94587704,26.592947,-34.102721)">
        <path
           style="baseline-shift:baseline;display:inline;overflow:visible;opacity:1;vector-effect:none;fill:#e6e6e6;stroke:none;stroke-width:7.23825;enable-background:accumulate;stop-color:#000000;stop-opacity:1"
           d="m 68.886719,45.986328 c -10.185849,0 -19.414283,2.698516 -26.128907,7.095703 -6.714623,4.397187 -10.937499,10.530856 -10.9375,17.34961 0,6.818753 4.222877,12.954375 10.9375,17.351562 6.714624,4.397187 15.943058,7.095703 26.128907,7.095703 10.185848,0 19.416236,-2.698516 26.130859,-7.095703 6.714622,-4.397187 10.935552,-10.532809 10.935552,-17.351562 0,-6.818754 -4.22093,-12.952423 -10.935552,-17.34961 -6.714623,-4.397187 -15.945011,-7.095703 -26.130859,-7.095703 z m 0,1 c 10.00889,0 19.062434,2.66217 25.582031,6.931641 6.5196,4.269471 10.48438,10.107551 10.48438,16.513672 0,6.40612 -3.96478,12.246154 -10.48438,16.515625 -6.519597,4.269471 -15.573141,6.93164 -25.582031,6.93164 -10.008891,0 -19.062434,-2.662169 -25.582032,-6.93164 C 36.78509,82.677795 32.820312,76.837761 32.820312,70.431641 c 0,-6.406121 3.964778,-12.244201 10.484375,-16.513672 6.519598,-4.269471 15.573141,-6.931641 25.582032,-6.931641 z"
           id="path9" />
        <path
           style="baseline-shift:baseline;display:inline;overflow:visible;opacity:1;vector-effect:none;fill:#e6e6e6;stroke:none;stroke-width:7.23825;enable-background:accumulate;stop-color:#000000;stop-opacity:1"
           d="m 68.886719,44.931641 c -10.372324,0 -19.786993,2.735872 -26.707032,7.267578 -6.921462,4.53264 -11.414062,10.97781 -11.414062,18.232422 0,7.25461 4.492544,13.701698 11.414062,18.234375 6.920039,4.531706 16.334708,7.267578 26.707032,7.267578 10.372322,0 19.788909,-2.735848 26.708984,-7.267578 6.921547,-4.532701 11.412107,-10.979857 11.412107,-18.234375 0,-7.25452 -4.49061,-13.699759 -11.412107,-18.232422 -6.920075,-4.53173 -16.336662,-7.267578 -26.708984,-7.267578 z m 0,1 c 10.196173,0 19.436046,2.698837 26.162109,7.103515 6.724632,4.403747 10.958982,10.554598 10.958982,17.396485 0,6.841885 -4.2344,12.994727 -10.958982,17.398437 -6.726063,4.404678 -15.965936,7.103516 -26.162109,7.103516 -10.196175,0 -19.434057,-2.698814 -26.160157,-7.103516 -6.724619,-4.403733 -10.960937,-10.556644 -10.960937,-17.398437 0,-6.841795 4.236262,-12.992715 10.960937,-17.396485 6.7261,-4.404702 15.963982,-7.103515 26.160157,-7.103515 z m 0,1.111328 c -9.999334,0 -19.041505,2.659163 -25.550782,6.921875 -6.507689,4.261673 -10.458984,10.083904 -10.458984,16.466797 0,6.382891 3.951295,12.205123 10.458984,16.466796 6.509217,4.262673 15.551382,6.923829 25.550782,6.923829 9.999398,0 19.041565,-2.661156 25.550781,-6.923829 6.50769,-4.261673 10.45898,-10.083905 10.45898,-16.466796 0,-6.382893 -3.95129,-12.205124 -10.45898,-16.466797 -6.509275,-4.262712 -15.551449,-6.921875 -25.550781,-6.921875 z m 0,1 c 9.821649,0 18.690879,2.623618 25.003906,6.757812 6.314615,4.135235 10.005855,9.660408 10.005855,15.63086 0,5.97045 -3.69124,11.495624 -10.005855,15.630859 -6.313086,4.134233 -15.182323,6.759766 -25.003906,6.759766 -9.821585,0 -18.690819,-2.625532 -25.003907,-6.759766 -6.314614,-4.135235 -10.005859,-9.660409 -10.005859,-15.630859 0,-5.970452 3.691245,-11.495625 10.005859,-15.63086 6.313028,-4.134194 15.182256,-6.757812 25.003907,-6.757812 z"
           id="path10" />
      </g>
      <path
         sodipodi:type="star"
         style="fill:#ffdd55;stroke:#ffffff;stroke-width:9.94833e-06"
         id="path3"
         inkscape:flatsided="false"
         sodipodi:sides="5"
         sodipodi:cx="33.635593"
         sodipodi:cy="32.262711"
         sodipodi:r1="16.12121"
         sodipodi:r2="8.060605"
         sodipodi:arg1="-1.5707963"
         sodipodi:arg2="-0.9424778"
         inkscape:rounded="0.2"
         inkscape:randomized="0"
         d="m 33.635594,16.1415 c 2.141108,0 3.005712,8.341532 4.737904,9.600044 1.732193,1.258512 9.932639,-0.496876 10.594277,1.539439 0.661639,2.036315 -7.004452,5.436277 -7.666091,7.472591 -0.661638,2.036315 3.541911,9.292958 1.809719,10.55147 -1.732193,1.258511 -7.334702,-4.981728 -9.47581,-4.981728 -2.141108,0 -7.743617,6.240239 -9.475809,4.981727 -1.732193,-1.258511 2.471357,-8.515154 1.809718,-10.551468 -0.661638,-2.036315 -8.327729,-5.436278 -7.66609,-7.472593 0.661638,-2.036314 8.862084,-0.280926 10.594277,-1.539438 1.732192,-1.258512 2.596797,-9.600044 4.737905,-9.600044 z"
         inkscape:transform-center-y="-1.4561196"
         transform="matrix(0.94587704,0,0,0.94587704,30.08597,-2.1937104)" />
      <path
         sodipodi:type="star"
         style="fill:#ffdd55;stroke:#ffffff;stroke-width:9.94833e-06"
         id="path4"
         inkscape:flatsided="false"
         sodipodi:sides="5"
         sodipodi:cx="33.635593"
         sodipodi:cy="32.262711"
         sodipodi:r1="16.12121"
         sodipodi:r2="8.060605"
         sodipodi:arg1="-1.5707963"
         sodipodi:arg2="-0.9424778"
         inkscape:rounded="0.2"
         inkscape:randomized="0"
         d="m 33.635594,16.1415 c 2.141108,0 3.005712,8.341532 4.737904,9.600044 1.732193,1.258512 9.932639,-0.496876 10.594277,1.539439 0.661639,2.036315 -7.004452,5.436277 -7.666091,7.472591 -0.661638,2.036315 3.541911,9.292958 1.809719,10.55147 -1.732193,1.258511 -7.334702,-4.981728 -9.47581,-4.981728 -2.141108,0 -7.743617,6.240239 -9.475809,4.981727 -1.732193,-1.258511 2.471357,-8.515154 1.809718,-10.551468 -0.661638,-2.036315 -8.327729,-5.436278 -7.66609,-7.472593 0.661638,-2.036314 8.862084,-0.280926 10.594277,-1.539438 1.732192,-1.258512 2.596797,-9.600044 4.737905,-9.600044 z"
         inkscape:transform-center-y="-0.67410276"
         transform="matrix(0.44108409,-0.83673664,0.83673664,0.44108409,69.95042,27.584876)"
         inkscape:transform-center-x="-0.68933443" />
      <path
         sodipodi:type="star"
         style="fill:#ffdd55;stroke:#ffffff;stroke-width:9.94833e-06"
         id="path5"
         inkscape:flatsided="false"
         sodipodi:sides="5"
         sodipodi:cx="33.635593"
         sodipodi:cy="32.262711"
         sodipodi:r1="16.12121"
         sodipodi:r2="8.060605"
         sodipodi:arg1="-1.5707963"
         sodipodi:arg2="-0.9424778"
         inkscape:rounded="0.2"
         inkscape:randomized="0"
         d="m 33.635594,16.1415 c 2.141108,0 3.005712,8.341532 4.737904,9.600044 1.732193,1.258512 9.932639,-0.496876 10.594277,1.539439 0.661639,2.036315 -7.004452,5.436277 -7.666091,7.472591 -0.661638,2.036315 3.541911,9.292958 1.809719,10.55147 -1.732193,1.258511 -7.334702,-4.981728 -9.47581,-4.981728 -2.141108,0 -7.743617,6.240239 -9.475809,4.981727 -1.732193,-1.258511 2.471357,-8.515154 1.809718,-10.551468 -0.661638,-2.036315 -8.327729,-5.436278 -7.66609,-7.472593 0.661638,-2.036314 8.862084,-0.280926 10.594277,-1.539438 1.732192,-1.258512 2.596797,-9.600044 4.737905,-9.600044 z"
         inkscape:transform-center-y="1.1156571"
         transform="matrix(0.73832322,0.59123785,-0.59123785,0.73832322,98.880709,11.417057)"
         inkscape:transform-center-x="0.15986175" />
    </g>
  </g>
</svg>
